<svg xmlns="http://www.w3.org/2000/svg" xml:space="preserve" viewBox="0 0 1200 1200"><path fill="#0C4C2F" d="M73 601V378c0-57 26-98 75-126L440 82c34-19 66-39 100-57 45-24 92-23 136 3l395 228c23 13 35 33 44 57 9 23 12 47 12 72v439c-1 52-24 92-69 118l-294 170-116 66c-39 21-78 17-114-4L176 968c-13-8-26-14-39-23-40-27-63-65-64-113V601z"/><path fill="#16C082" d="M609 564c-18 1-35-4-51-13L193 340l-32-18-10-7c-16-13-16-31 0-43 13-9 28-17 42-25L551 40c36-21 72-21 109 0l345 199 50 29 9 6c15 13 15 31-1 43-11 8-23 14-34 21L656 553c-14 8-30 12-47 11zm-2-313c-20 1-40 4-57 16-23 16-22 41 1 56h1c24 14 49 17 76 13 15-3 30-8 41-18 16-13 17-32 1-46a106 106 0 0 0-63-21zM92 611V370c5-22 21-31 41-20l86 49 314 181c33 20 50 49 50 87l1 458-1 11c-3 22-20 32-40 21l-52-29-313-181c-14-8-28-15-41-24a92 92 0 0 1-45-80V612zm57-125c0 16 5 32 12 46 11 20 24 36 44 46 25 13 46 1 48-27a107 107 0 0 0-56-98c-25-14-47-1-48 27v6zm273 476c0 14 4 28 10 41 10 21 25 40 47 51 23 12 43 2 47-24 3-18-2-35-10-52-11-21-25-39-46-50-20-10-38-4-45 15-2 6-2 12-3 19zm686-348v222c0 36-16 65-47 83l-300 174-91 52c-9 5-18 10-28 8-12-2-19-11-20-26V669c0-35 16-63 46-81l382-220c9-5 18-10 27-13 15-5 27 3 30 18l1 17v224zm-160-67 2 14c3 17 16 28 32 25 7-1 14-4 20-8 27-18 43-44 49-77v-21c-4-24-23-33-45-22-36 19-53 52-58 89zM813 778c1 19 3 32 16 39 13 6 26 2 37-5 13-8 23-18 31-31 13-20 22-41 19-66s-23-36-45-24c-36 20-53 52-58 87zm-135 239v8c3 24 24 36 45 24 36-19 54-51 58-91 1-6-1-14-3-20-6-17-25-23-43-13-36 20-53 52-57 92z"/></svg>